<svg width="157" height="157" viewBox="0 0 157 157" fill="none" xmlns="http://www.w3.org/2000/svg">
<path d="M78.8983 18.4626C82.5818 18.1003 85.3443 20.6515 88.0466 23.384C101.376 36.744 114.706 50.074 128.036 63.419C130.301 65.6985 132.58 67.978 134.845 70.2424C139.736 75.1487 139.781 82.1533 134.86 87.0746C118.828 103.167 102.78 119.229 86.7181 135.277C81.3439 140.636 74.4449 140.545 69.1009 135.201C53.4311 119.531 37.7613 103.846 22.0462 88.1917C18.9967 85.1574 17.3966 81.7155 17.8494 77.3225C18.1514 74.4391 19.4949 72.1747 21.4574 70.2122C30.5 61.1394 39.5879 52.1119 48.6305 43.0391C55.5596 36.0949 62.4435 29.1205 69.3575 22.1612C72.2409 19.2778 74.4298 18.3871 78.8983 18.4626ZM56.0427 81.8363C55.7861 82.5156 55.6502 82.7118 55.6502 82.893C55.6351 89.8221 55.5898 96.7664 55.6502 103.695C55.6502 104.42 56.2088 105.265 56.7371 105.824C62.6397 111.983 68.5876 118.097 74.5506 124.211C77.1018 126.823 78.7322 126.838 81.2986 124.272C95.5191 110.066 109.71 95.8455 123.915 81.6249C126.044 79.4964 126.044 77.8509 123.885 75.677C115.823 67.6157 107.762 59.5543 99.6706 51.5232C97.4515 49.3191 95.5041 49.289 93.3151 51.4628C88.3032 56.4143 83.2913 61.381 78.385 66.4382C77.6453 67.193 77.1471 68.5064 77.1169 69.5631C76.9962 75.7978 77.0566 82.0325 77.0717 88.2672C77.0717 88.9164 77.2377 89.5655 77.4189 90.9241C83.9857 84.629 90.0845 78.7717 96.2136 72.8993C98.3874 74.8165 100.44 76.6432 102.509 78.4698C102.086 79.0586 101.875 79.436 101.588 79.7228C94.1605 87.2407 86.7181 94.7284 79.321 102.276C78.219 103.394 77.6604 103.152 76.6641 102.125C70.4746 95.7851 64.2097 89.5202 57.9599 83.2402C57.4618 82.7571 56.8126 82.3948 56.0427 81.8363ZM77.0415 31.9133C76.8452 31.8378 76.649 31.7623 76.4376 31.6717C75.7281 32.3209 75.0035 32.9247 74.3242 33.6041C60.4659 47.5227 46.6076 61.4414 32.7493 75.3751C30.0169 78.1226 30.0018 79.6473 32.7493 82.425C38.8029 88.5389 44.8565 94.6378 50.9251 100.722C51.378 101.174 51.9517 101.522 52.8725 102.231C53.0235 100.873 53.1895 100.012 53.2046 99.1516C53.2348 93.264 53.2499 87.3916 53.1895 81.5041C53.1744 79.8587 53.6424 78.6359 54.8501 77.4282C61.7943 70.5443 68.6329 63.5397 75.562 56.6559C76.7546 55.4784 77.2981 54.2556 77.283 52.595C77.2226 46.4358 77.2679 40.2766 77.2528 34.1173C77.2377 33.3776 77.1018 32.6379 77.0415 31.9133Z" fill="#0056E4"/>
</svg>
