<svg width="92" height="21" viewBox="0 0 92 21" fill="none" xmlns="http://www.w3.org/2000/svg">
<g clip-path="url(#clip0_493_474)">
<path d="M10.4476 20.981C9.72443 21.0856 9.22964 20.667 8.75388 20.1912C7.96412 19.4014 7.17436 18.6022 6.3846 17.8124C5.37599 16.7943 4.35786 15.7762 3.34925 14.758C2.46434 13.8731 1.57943 12.9787 0.685004 12.1033C-0.237969 11.1994 -0.218938 9.81965 0.656458 8.9728C2.3121 7.35522 3.93919 5.7091 5.56629 4.07249C6.71763 2.92115 7.86896 1.7603 9.01079 0.58993C9.772 -0.190314 11.1802 -0.209345 11.97 0.58993C12.9406 1.56999 13.9111 2.55006 14.8817 3.52061C16.2423 4.88128 17.5935 6.23243 18.9541 7.5931C19.4394 8.07838 19.9342 8.56365 20.41 9.04892C21.2188 9.87675 21.2092 11.1327 20.3814 11.9606C18.5165 13.8255 16.6515 15.6905 14.796 17.5555C13.835 18.5165 12.8739 19.4776 11.9129 20.4386C11.5133 20.8382 11.0375 21.0476 10.4476 20.981ZM10.5142 14.8151C10.0955 14.406 9.72442 14.0634 9.37236 13.7018C8.56357 12.8835 7.75478 12.0557 6.93648 11.2374C6.86987 11.1708 6.75569 11.1423 6.67005 11.1042C6.64151 11.1994 6.58441 11.2945 6.58441 11.3897C6.5749 12.5029 6.5749 13.6257 6.59393 14.739C6.59393 14.9008 6.67957 15.1006 6.78423 15.2243C7.81187 16.2995 8.85854 17.3652 9.90521 18.4404C10.3144 18.8591 10.6189 18.8591 11.0375 18.4499C12.1127 17.3747 13.188 16.29 14.2727 15.2148C15.6904 13.7875 17.1177 12.3697 18.5355 10.952C18.8305 10.657 18.8209 10.3525 18.5165 10.048C18.3357 9.86723 18.1454 9.68644 17.9646 9.50565C16.7086 8.24965 15.4526 6.98413 14.1966 5.72813C13.8826 5.41413 13.521 5.40461 13.226 5.69958C12.3126 6.61304 11.3991 7.5265 10.5047 8.44947C10.4 8.55414 10.3334 8.72541 10.3334 8.87765C10.3239 9.99093 10.3239 11.1137 10.3239 12.227C10.3239 12.3317 10.3429 12.4268 10.3619 12.5886C10.4856 12.5029 10.5618 12.4554 10.6284 12.3983C11.0946 11.9606 11.5609 11.5134 12.0176 11.0661C12.4933 10.6094 12.9691 10.1527 13.4353 9.68644C13.5781 9.54371 13.6923 9.5342 13.8445 9.67693C14.0824 9.90529 14.3488 10.1241 14.5962 10.3335C14.7484 10.4572 14.7199 10.5523 14.5867 10.6855C13.5876 11.6846 12.598 12.6932 11.6179 13.6923C11.2469 14.0539 10.8853 14.4345 10.5142 14.8151ZM10.3715 4.37697C10.3715 3.78703 10.3715 3.2066 10.3619 2.61666C10.3619 2.53103 10.3049 2.44539 10.2668 2.35975C10.1812 2.39781 10.0955 2.42636 10.0194 2.47394C9.97182 2.50248 9.93376 2.55006 9.8957 2.59763C8.65872 3.84412 7.42175 5.10964 6.17526 6.35613C4.98587 7.56456 3.78695 8.76347 2.56901 9.94335C2.16937 10.3335 2.21695 10.7712 2.55949 11.1042C3.39683 11.913 4.20562 12.7408 5.03344 13.5591C5.32841 13.8541 5.61387 14.1491 5.90884 14.4345C6.05156 14.5772 6.14672 14.5392 6.16575 14.3394C6.17526 14.2537 6.16575 14.1681 6.16575 14.0825C6.16575 12.9977 6.15623 11.9035 6.17526 10.8187C6.17526 10.657 6.2609 10.4572 6.37508 10.343C7.61205 9.07747 8.86806 7.82147 10.1241 6.57498C10.3049 6.39419 10.381 6.20389 10.3715 5.95649C10.3619 5.43316 10.3715 4.90031 10.3715 4.37697ZM57.5953 10.3335C57.5953 8.51608 57.6048 6.69868 57.5858 4.87176C57.5858 4.61485 57.6524 4.52921 57.9188 4.52921C59.7552 4.53873 61.6012 4.50067 63.4376 4.54825C64.4748 4.57679 65.5024 4.81467 66.2636 5.62346C66.9392 6.35613 67.0819 7.60262 67.0819 7.83098C67.0629 8.74444 66.6823 9.46759 65.864 9.92432C65.7879 9.9719 65.7213 10.0385 65.6546 10.1051C65.7308 10.1622 65.7974 10.2288 65.883 10.2764C66.6823 10.7046 67.1485 11.3706 67.3388 12.2555C67.5387 13.2166 67.3198 14.0634 66.7394 14.8246C66.2922 15.4051 65.6737 15.7095 64.9791 15.8808C64.2464 16.0711 63.5042 16.1187 62.7525 16.1187C61.1445 16.1092 59.5364 16.1092 57.9283 16.1187C57.6714 16.1187 57.5858 16.0521 57.5858 15.7857C57.6048 13.9778 57.5953 12.1604 57.5953 10.3335ZM61.7058 11.0852C61.7058 11.0757 61.7058 11.0757 61.7058 11.0661C61.1254 11.0661 60.5545 11.0661 59.9741 11.0661C59.7552 11.0661 59.6411 11.1327 59.6411 11.3801C59.6506 12.1889 59.6506 12.9977 59.6411 13.8065C59.6411 14.0825 59.7552 14.1871 60.0217 14.1871C60.6782 14.1776 62.7049 14.1966 63.3615 14.1776C63.9324 14.1681 65.2931 13.9968 65.2931 12.6266C65.2931 11.3516 64.3416 11.1042 63.4091 11.1042C62.8477 11.0947 62.2768 11.0852 61.7058 11.0852ZM61.6678 6.47031C61.6678 6.47031 61.6678 6.4608 61.6678 6.47031C61.1064 6.4608 60.5545 6.47983 59.9931 6.4608C59.7267 6.45128 59.6411 6.55595 59.6411 6.81286C59.6506 7.49795 59.6411 8.18304 59.6411 8.85862C59.6411 9.21068 59.6981 9.25826 60.0407 9.25826C61.0303 9.25826 62.3148 9.26777 63.3139 9.24874C64.313 9.24874 64.8934 9.00135 64.8934 7.85001C64.8934 6.80334 64.2845 6.4608 63.3615 6.4608C62.8096 6.47983 62.2387 6.47031 61.6678 6.47031ZM52.0575 5.93746C51.5912 6.37516 51.1535 6.79383 50.7539 7.17443C50.2876 6.92704 49.8214 6.6511 49.3456 6.42274C48.6225 6.08019 47.8327 6.00407 47.0715 6.1468C45.5681 6.41322 44.5214 7.29813 43.9981 8.75395C43.6841 9.62935 43.5889 10.5333 43.7793 11.4372C44.0742 12.836 44.9972 14.0349 46.6148 14.3013C47.2142 14.3965 47.8422 14.4345 48.4417 14.3965C49.1173 14.3489 49.7358 14.0539 50.2686 13.6257C50.3542 13.5591 50.4208 13.4069 50.4208 13.2832C50.4399 12.7408 50.4208 12.208 50.4304 11.6656C50.4399 11.4467 50.3542 11.3801 50.1449 11.3801C49.3456 11.3897 48.5464 11.3801 47.7471 11.3897C47.5377 11.3897 47.4521 11.3231 47.4616 11.1137C47.4711 10.676 47.4711 10.2288 47.4616 9.78159C47.4616 9.58178 47.5092 9.48662 47.7376 9.48662C49.1934 9.49614 50.6492 9.49614 52.0955 9.48662C52.3049 9.48662 52.3524 9.56274 52.3524 9.76256C52.3429 11.2279 52.3524 12.6932 52.3429 14.1491C52.3429 14.2442 52.3144 14.3584 52.2478 14.4345C51.5532 15.2433 50.6968 15.8047 49.6691 16.1377C48.613 16.4803 47.5282 16.4517 46.472 16.3185C44.4168 16.0521 42.8468 14.9864 42.0665 13.0168C41.6479 11.9701 41.5242 10.8473 41.6764 9.70547C41.7906 8.84911 41.9714 8.01177 42.3805 7.24104C43.0942 5.91843 44.1313 4.99546 45.5776 4.5197C46.472 4.22473 47.395 4.11055 48.3275 4.2057C49.7453 4.35794 50.9918 4.90031 52.0575 5.93746ZM35.6533 5.91843C35.2251 6.36564 34.835 6.7748 34.4353 7.16492C34.3973 7.20298 34.2546 7.17443 34.1975 7.12686C33.7217 6.78431 33.2269 6.48934 32.656 6.31807C31.9138 6.09922 31.1907 6.04213 30.4295 6.2134C29.8205 6.34661 29.2686 6.58449 28.7928 6.99365C28.0411 7.64068 27.6034 8.47801 27.4036 9.43905C27.2038 10.4477 27.2514 11.4277 27.6986 12.3602C28.2124 13.4164 29.0402 14.111 30.2106 14.2918C30.791 14.3869 31.3905 14.425 31.9804 14.3965C32.7036 14.3584 33.3506 14.0634 33.912 13.5877C33.9786 13.5306 34.0262 13.4069 34.0262 13.3212C34.0357 12.7598 34.0262 12.208 34.0357 11.6466C34.0357 11.4372 33.9596 11.3801 33.7693 11.3801C32.9795 11.3897 32.1898 11.3706 31.4 11.3897C31.1431 11.3897 31.0575 11.3231 31.0765 11.0661C31.0955 10.638 31.0955 10.2003 31.0765 9.76256C31.067 9.54371 31.1526 9.48662 31.3619 9.48662C32.8083 9.49614 34.245 9.49614 35.6913 9.48662C35.8817 9.48662 35.9578 9.54371 35.9578 9.75305C35.9483 11.2279 35.9578 12.7028 35.9483 14.1681C35.9483 14.2537 35.9197 14.3584 35.8626 14.425C35.1775 15.2433 34.3116 15.7952 33.2935 16.1282C32.2373 16.4708 31.1526 16.4517 30.0964 16.309C28.1363 16.0521 26.2808 14.9959 25.5577 12.5695C25.3103 11.7417 25.1866 10.8949 25.2532 10.048C25.3674 8.68735 25.7194 7.38377 26.5948 6.29904C27.2799 5.45219 28.1458 4.84322 29.2115 4.51018C30.0488 4.24376 30.8957 4.12958 31.7521 4.18667C32.9415 4.26279 34.0262 4.65291 34.9872 5.36655C35.2156 5.53782 35.4154 5.72813 35.6533 5.91843ZM91.6882 15.6334C90.4893 13.9207 89.2808 12.1984 88.0914 10.4762C88.0248 10.3811 88.0344 10.1812 88.0819 10.067C88.1866 9.8482 88.3484 9.64838 88.4911 9.44856C89.4426 8.08789 90.3941 6.73674 91.3456 5.37607C91.5264 5.11916 91.7072 4.87176 91.888 4.60534C91.8214 4.56728 91.7928 4.54825 91.7738 4.54825C91.0697 4.54825 90.3656 4.53873 89.671 4.54825C89.5948 4.54825 89.4997 4.62437 89.4616 4.69097C88.5767 5.99455 87.6918 7.30765 86.8069 8.62074C86.7403 8.72541 86.6832 8.7825 86.6356 8.80153H86.5785C86.531 8.7825 86.4739 8.72541 86.4073 8.62074C85.5223 7.30765 84.6469 6.00407 83.7525 4.69097C83.7049 4.62437 83.6098 4.54825 83.5432 4.54825C82.8391 4.53873 82.1349 4.54825 81.4403 4.54825C81.4118 4.54825 81.3928 4.56728 81.3261 4.60534C81.5165 4.87176 81.6877 5.11916 81.8685 5.37607C82.82 6.73674 83.7716 8.08789 84.7136 9.44856C84.8563 9.64838 85.018 9.8482 85.1227 10.067C85.1798 10.1812 85.1798 10.3811 85.1132 10.4762C83.9238 12.1984 82.7154 13.9112 81.5165 15.6334C81.4213 15.7762 81.3357 15.9189 81.2215 16.0902C81.3166 16.1092 81.3832 16.1282 81.4403 16.1282C82.0874 16.1282 82.7344 16.1377 83.3719 16.1187C83.4861 16.1187 83.6383 16.0426 83.7049 15.9569C84.371 14.9959 85.018 14.0254 85.6746 13.0643C85.903 12.7313 86.1313 12.4078 86.3597 12.0748C86.4548 11.932 86.531 11.8559 86.5976 11.8464V11.8369V11.8464C86.6642 11.8559 86.7403 11.932 86.8354 12.0748C87.0638 12.4078 87.2922 12.7313 87.5205 13.0643C88.1771 14.0254 88.8241 14.9959 89.4902 15.9569C89.5568 16.0426 89.709 16.1187 89.8232 16.1187C90.4702 16.1377 91.1173 16.1282 91.7548 16.1282C91.8119 16.1282 91.8785 16.1092 91.9736 16.0902C91.8785 15.9094 91.7928 15.7666 91.6882 15.6334ZM37.8989 10.3049C37.8989 8.49704 37.9084 6.68916 37.8894 4.87176C37.8894 4.53873 37.9655 4.53873 38.2319 4.53873C38.8028 4.53873 39.3261 4.53873 39.7068 4.53873C39.9446 4.52921 40.0208 4.60534 40.0208 4.84322C40.0112 5.97552 40.0208 7.11734 40.0208 8.24965C40.0208 10.7426 40.0208 13.2356 40.0208 15.7286C40.0208 16.1187 40.0208 16.1187 39.6211 16.1187C39.1454 16.1187 38.6791 16.1092 38.2034 16.1282C37.9655 16.1377 37.8894 16.0616 37.8989 15.8142C37.8989 13.9778 37.8989 12.1414 37.8989 10.3049ZM74.7512 4.31988C71.0307 4.31988 68.8042 7.02219 68.8042 10.3525C68.8042 13.6828 70.888 16.3851 74.7512 16.3851C78.6334 16.3851 80.6981 13.6828 80.6981 10.3525C80.6981 7.02219 78.5097 4.31988 74.7512 4.31988ZM74.7512 14.4726C72.2392 14.4726 70.888 12.6266 70.888 10.343C70.888 8.05935 72.3343 6.2134 74.7512 6.2134C77.1966 6.2134 78.6143 8.05935 78.6143 10.343C78.6143 12.6266 77.2727 14.4726 74.7512 14.4726Z" fill="#0156E4"/>
</g>
<defs>
<clipPath id="clip0_493_474">
<rect width="91.9832" height="21" fill="white"/>
</clipPath>
</defs>
</svg>
